<?xml version="1.0" encoding="iso-8859-1"?>
<svg version="1.1" id="Layer_1" xmlns="http://www.w3.org/2000/svg" xmlns:xlink="http://www.w3.org/1999/xlink" x="0px"  y="0px"
viewBox="0 0 512.001 512.001" style="enable-background:new 0 0 512.001 512.001;" xml:space="preserve"> <circle style=" fill:#F7B239;" cx=" 256.004" cy=" 256.004" r=" 246.855" /><path d=" M256.001,0C114.841,0,0,114.841,0,256.001s114.841,256.001,256.001,256.001S512.001,397.16,512.001,256.001S397.16,0,256.001,0zM256.001,493.701c-131.069,0-237.702-106.631-237.702-237.7S124.932,18.299,256.001,18.299s237.702,106.632,237.702,237.702S387.068,493.701,256.001,493.701z" /> <path d=" M161.852,136.57c0-5.053-4.095-9.15-9.15-9.15s-9.15,4.097-9.15,9.15c0,26.857-21.849,48.707-48.707,48.707
c-5.054,0-9.15,4.097-9.15,9.15s4.095,9.15,9.15,9.15C131.792,203.575,161.852,173.517,161.852,136.57z" /> <path d=" M417.155,185.276c-26.858,0-48.707-21.849-48.707-48.707c0-5.053-4.095-9.15-9.15-9.15c-5.054,0-9.15,4.097-9.15,9.15
c0,36.947,30.059,67.006,67.006,67.006c5.054,0,9.15-4.097,9.15-9.15C426.304,189.372,422.209,185.276,417.155,185.276z" /> <path style=" fill:#FFFFFF;" d=" M332.852,355.557H179.148c-31.833,0-57.64-25.805-57.64-57.64l0,0c0-31.833,25.805-57.64,57.64-57.64
h153.705c31.833,0,57.64,25.805,57.64,57.64l0,0C390.492,329.751,364.685,355.557,332.852,355.557z" /><path style=" fill:#CCCCCC;" d=" M332.852,240.279H179.148c-31.833,0-57.64,25.805-57.64,57.64l0,0c0,5.392,0.756,10.604,2.141,15.553
c6.79-24.274,29.057-42.085,55.499-42.085h153.705c26.442,0,48.709,17.811,55.499,42.085c1.385-4.949,2.141-10.162,2.141-15.553l0,0
C390.492,266.085,364.686,240.279,332.852,240.279z" /><path d=" M332.853,231.13H179.148c-36.828,0-66.789,29.962-66.789,66.789s29.962,66.789,66.789,66.789h153.705
c36.828,0,66.788-29.962,66.788-66.789S369.679,231.13,332.853,231.13zM380.464,288.768h-20.837l0.134-31.165
C370.341,264.688,377.981,275.821,380.464,288.768zM341.494,250.214l-0.166,38.554h-23.739l0.17-39.341h15.094
C335.803,249.429,338.688,249.708,341.494,250.214zM246.89,307.067l0.17,39.341h-33.603l-0.17-39.341L246.89,307.067
L246.89,307.067zM213.208,288.768l-0.17-39.341h33.603l0.17,39.341H213.208zM265.189,307.067h34.022l-0.17,39.341H265.36
L265.189,307.067zM265.11,288.768l-0.17-39.341h34.518l-0.17,39.341H265.11zM194.739,249.429l0.17,39.341H171.17l-0.167-38.643
c2.65-0.45,5.369-0.698,8.146-0.698H194.739zM152.734,257.285l0.135,31.483h-21.334
C134.057,275.622,141.901,264.351,152.734,257.285zM131.535,307.067h21.414l0.137,31.709
C142.072,331.726,134.085,320.356,131.535,307.067zM171.415,345.784l-0.167-38.717h23.739l0.17,39.341h-16.008
C176.515,346.408,173.935,346.19,171.415,345.784zM317.34,346.408l0.17-39.341h23.739l-0.167,38.628
c-2.677,0.46-5.424,0.712-8.23,0.712H317.34zM359.412,338.456l0.135-31.389h20.916C377.954,320.155,370.17,331.384,359.412,338.456
z" /><path transform = "translate(0 -30)" d=" M202.458,257.719c-2.908,0-5.743-1.485-7.343-4.162c-7.717-12.917-21.309-20.63-36.357-20.63
c-15.048,0-28.639,7.713-36.357,20.63c-2.419,4.051-7.663,5.374-11.716,2.953c-4.051-2.421-5.372-7.665-2.953-11.716
c10.832-18.13,29.906-28.953,51.025-28.953s40.193,10.824,51.025,28.953c2.421,4.051,1.098,9.296-2.953,11.716
C205.459,257.329,203.949,257.719,202.458,257.719z" />path transform = "translate(0 -30)" d=" M396.939,257.719c-2.908,0-5.742-1.485-7.342-4.162c-7.717-12.917-21.309-20.63-36.358-20.63
c-15.048,0-28.638,7.713-36.356,20.63c-2.418,4.051-7.665,5.374-11.716,2.953c-4.051-2.421-5.372-7.665-2.953-11.716
c10.832-18.129,29.906-28.953,51.024-28.953c21.119,0,40.193,10.824,51.026,28.953c2.419,4.051,1.098,9.296-2.953,11.716
C399.941,257.329,398.43,257.719,396.939,257.719z" /></svg>