<?xml version="1.0" encoding="iso-8859-1"?>
<svg version="1.1" id="Layer_1" xmlns="http://www.w3.org/2000/svg" xmlns:xlink="http://www.w3.org/1999/xlink" x="0px"  y="0px"
viewBox="0 0 512.001 512.001" style="enable-background:new 0 0 512.001 512.001;" xml:space="preserve"> <circle style=" fill:#F7B239;" cx=" 256.004" cy=" 256.004" r=" 246.855" /><path d=" M256.001,0C114.841,0,0,114.841,0,256.001s114.841,256.001,256.001,256.001S512.001,397.16,512.001,256.001S397.16,0,256.001,0zM256.001,493.701c-131.069,0-237.702-106.631-237.702-237.7S124.932,18.299,256.001,18.299s237.702,106.632,237.702,237.702S387.068,493.701,256.001,493.701z" /> <path d=" M174.858,149.552c-31.233,1.474-58.686,18.813-73.44,46.381c-2.384,4.455-0.705,10,3.75,12.385
c1.375,0.736,2.852,1.085,4.31,1.085c3.266,0,6.427-1.754,8.075-4.833c11.686-21.836,33.43-35.569,58.168-36.736
c5.048-0.238,8.946-4.524,8.708-9.57C184.191,153.216,179.899,149.296,174.858,149.552z" /> <path d=" M337.142,149.552c-5.053-0.245-9.331,3.66-9.57,8.708c-0.239,5.048,3.66,9.333,8.708,9.57
c24.738,1.167,46.485,14.9,58.169,36.736c1.649,3.082,4.808,4.835,8.075,4.835c1.455,0,2.934-0.349,4.309-1.085
c4.454-2.385,6.134-7.93,3.749-12.384C395.831,168.365,368.376,151.026,337.142,149.552z" /> <path style=" fill:#A81004;" d=" M303.045,359.121c0,12.468-2.623,24.106-7.149,33.951c-8.308,18.079-23.069,30.096-39.892,30.096
s-31.584-12.016-39.892-30.096c-4.538-9.845-7.161-21.483-7.161-33.951c0-35.366,21.068-64.047,47.053-64.047
C281.989,295.074,303.045,323.755,303.045,359.121z" />
<path style=" fill:#F95428;" d=" M295.896,393.072c-8.308,18.079-23.069,30.096-39.892,30.096s-31.584-12.016-39.892-30.096
c3.245-0.659,6.6-1.013,10.04-1.013c4.143,0,8.169,0.504,12.02,1.453c11.689,2.883,23.974,2.88,35.664-0.002
c3.846-0.948,7.867-1.452,12.008-1.452C289.284,392.059,292.651,392.413,295.896,393.072z" />
<path d=" M256.004,285.924c-30.99,0-56.203,32.836-56.203,73.196c0,13.36,2.767,26.424,7.998,37.772
c10.193,22.182,28.215,35.425,48.206,35.425s38.012-13.242,48.206-35.423c5.224-11.364,7.986-24.426,7.986-37.773
C312.195,318.76,286.987,285.924,256.004,285.924zM256.004,414.018c-8.765,0-17.123-4.455-23.803-12.352
c1.274,0.188,2.537,0.423,3.781,0.73c6.546,1.615,13.279,2.422,20.014,2.422c6.737,0,13.478-0.809,20.03-2.424
c1.244-0.307,2.509-0.542,3.785-0.73C273.13,409.562,264.771,414.018,256.004,414.018zM290.017,383.083
c-6.183-0.432-12.414,0.076-18.374,1.544c-10.237,2.524-21.052,2.525-31.282,0.002c-5.957-1.47-12.188-1.98-18.38-1.547
c-2.541-7.443-3.884-15.601-3.884-23.961c0-30.27,17.004-54.897,37.904-54.897c20.894,0,37.893,24.627,37.893,54.897
C293.896,367.476,292.555,375.633,290.017,383.083z" /> <circle style=" fill:#FFFFFF;" cx=" 131.571" cy=" 236.815" r=" 58.555" />
<path d=" M131.574,169.109c-37.333,0-67.704,30.372-67.704,67.704s30.372,67.704,67.704,67.704s67.704-30.372,67.704-67.704
S168.905,169.109,131.574,169.109zM131.574,286.217c-27.242,0-49.405-22.163-49.405-49.405s22.163-49.405,49.405-49.405
s49.405,22.163,49.405,49.405S158.815,286.217,131.574,286.217z" />
<circle cx=" 131.571" cy=" 236.815" r=" 20.034" /> <circle style=" fill:#FFFFFF;" cx=" 380.426" cy=" 236.815" r=" 58.555" />
<path d=" M380.429,169.109c-37.333,0-67.704,30.372-67.704,67.704s30.372,67.704,67.704,67.704s67.704-30.372,67.704-67.704
S417.76,169.109,380.429,169.109zM380.429,286.217c-27.242,0-49.405-22.163-49.405-49.405s22.163-49.405,49.405-49.405
s49.405,22.163,49.405,49.405S407.67,286.217,380.429,286.217z" />
<circle cx=" 380.426" cy=" 236.815" r=" 20.034" /></svg>